<?xml version="1.0" encoding="UTF-8"?>
<svg xmlns="http://www.w3.org/2000/svg" xmlns:xlink="http://www.w3.org/1999/xlink" viewBox="0 0 48 48" width="48px" height="48px">
<g id="surface37235538">
<path style=" stroke:none;fill-rule:nonzero;fill:rgb(40.000001%,40.000001%,40.000001%);fill-opacity:1;" d="M 18.972656 31.5 C 18.972656 32.328125 18.304688 33 17.472656 33 C 16.644531 33 15.972656 32.328125 15.972656 31.5 L 15.972656 17.5 C 15.972656 16.847656 16.398438 16.269531 17.019531 16.070312 C 17.644531 15.871094 18.320312 16.101562 18.699219 16.632812 L 35.476562 40.335938 C 40.617188 36.710938 44 30.734375 44 24 C 44 13 35 4 24 4 C 13 4 4 13 4 24 C 4 35 13 44 24 44 C 27.191406 44 30.207031 43.222656 32.890625 41.878906 L 18.972656 22.214844 Z M 28.972656 16.5 C 28.972656 15.671875 29.644531 15 30.472656 15 C 31.304688 15 31.972656 15.671875 31.972656 16.5 L 31.972656 30.339844 L 28.972656 26.113281 Z M 28.972656 16.5 "/>
</g>
</svg>
